<svg xmlns="http://www.w3.org/2000/svg" viewBox="0 0 798.2 97.8"><defs><style>.cls-1{fill:#ed3126;}</style></defs><g id="Layer_2" data-name="Layer 2"><g id="Layer_1-2" data-name="Layer 1"><path class="cls-1" d="M604.7,1h32.7V9.7h-2.9a15.34,15.34,0,0,0-3,.2,3.41,3.41,0,0,0-1.7,1.4,5.59,5.59,0,0,0-.5,2.9V50a13.05,13.05,0,0,0,.2,2.7,1.46,1.46,0,0,0,.9.8,7.54,7.54,0,0,0,2.6.3,27.71,27.71,0,0,0,10.4-1.6,18.08,18.08,0,0,0,7.1-5.1,29.3,29.3,0,0,0,5.4-9.5l8.8,2.8-8.8,23.2H604.7V54.9h3.2a7.75,7.75,0,0,0,3-.5,3.24,3.24,0,0,0,1.5-1.3,6.54,6.54,0,0,0,.5-2.9V14.7a7.81,7.81,0,0,0-.5-3.2,2.56,2.56,0,0,0-1.3-1.4,6.61,6.61,0,0,0-2.8-.4h-3.5V1Z"/><path class="cls-1" d="M667.8,1h32.7V9.7h-2.9a15.34,15.34,0,0,0-3,.2,3.41,3.41,0,0,0-1.7,1.4,5.59,5.59,0,0,0-.5,2.9V50a13.05,13.05,0,0,0,.2,2.7,1.46,1.46,0,0,0,.9.8,7.54,7.54,0,0,0,2.6.3,27.71,27.71,0,0,0,10.4-1.6,18.08,18.08,0,0,0,7.1-5.1,29.3,29.3,0,0,0,5.4-9.5l8.8,2.8L719,63.6H667.8V54.9H671a7.75,7.75,0,0,0,3-.5,3.24,3.24,0,0,0,1.5-1.3,6.54,6.54,0,0,0,.5-2.9V14.7a7.81,7.81,0,0,0-.5-3.2,2.56,2.56,0,0,0-1.3-1.4,6.61,6.61,0,0,0-2.8-.4h-3.5V1Z"/><path class="cls-1" d="M782.2,1H789l6.6,22.5-8.9,2.4q-4.5-8.1-8.4-11.4a18,18,0,0,0-11.9-4.6,16.78,16.78,0,0,0-8.7,2.4,16.41,16.41,0,0,0-6.4,7.1,23.92,23.92,0,0,0-2.4,11.1,25.75,25.75,0,0,0,5.5,16.6,17.39,17.39,0,0,0,14.3,7,21,21,0,0,0,10.8-3,36.73,36.73,0,0,0,11.2-10l7.5,5.2c-4.8,6.2-9.3,10.5-13.3,12.9a39.66,39.66,0,0,1-20.7,5.6,34.94,34.94,0,0,1-17.1-4.2,31.69,31.69,0,0,1-12.2-11.9A32.53,32.53,0,0,1,730.3,32a31.72,31.72,0,0,1,4.4-16.4A31.11,31.11,0,0,1,746.8,4.1,34.87,34.87,0,0,1,763.9,0a35.88,35.88,0,0,1,16.8,3.8Z"/><path class="cls-1" d="M10.1,90.7a16.36,16.36,0,0,1,.7,2.1,4.5,4.5,0,0,1,.2.8h0c0-.1.2-.5.4-1.2l.5-1.5L16,79.8h3.2V96H17.1V82.4h0L12.1,96H10L5,82.2H4.9V96H2.7V79.8H6.2Z"/><path class="cls-1" d="M43.5,81.8H34.9v5h8v1.9h-8v5.5h9v1.9H32.5V79.9H43.4l.1,1.9Z"/><path class="cls-1" d="M70.4,87.9a10.32,10.32,0,0,1-.9,4.5,6.43,6.43,0,0,1-2.6,2.8,9,9,0,0,1-4.2.9H56.5V79.9h6.4a8.16,8.16,0,0,1,4,.9,6.18,6.18,0,0,1,2.6,2.7A9.86,9.86,0,0,1,70.4,87.9Zm-2.4,0a6.65,6.65,0,0,0-1.4-4.6,5.29,5.29,0,0,0-4.1-1.5H58.7V94.2h3.7a5.38,5.38,0,0,0,4.2-1.5C67.6,91.7,68,90.1,68,87.9Z"/><path class="cls-1" d="M85.2,96.1H82.9V79.9h2.3Z"/><path class="cls-1" d="M105.7,81.5a6.21,6.21,0,0,0-3.1.8,5.37,5.37,0,0,0-1.9,2.3,8.84,8.84,0,0,0-.7,3.3,8,8,0,0,0,.7,3.6,4.85,4.85,0,0,0,1.9,2.3,6,6,0,0,0,6.3-.2,5.1,5.1,0,0,0,1.8-3l2.2.5a7.13,7.13,0,0,1-1.4,2.9,7.9,7.9,0,0,1-2.5,1.9,7.38,7.38,0,0,1-3.4.6,8.3,8.3,0,0,1-4.3-1,7.79,7.79,0,0,1-2.8-2.9,10.76,10.76,0,0,1-1-4.6,8.68,8.68,0,0,1,1-4.4,6.77,6.77,0,0,1,2.9-2.9,8.16,8.16,0,0,1,4.2-1,7.94,7.94,0,0,1,4.5,1.2,6.49,6.49,0,0,1,2.5,3.5l-2.3.5a5.39,5.39,0,0,0-1.7-2.6A5,5,0,0,0,105.7,81.5Z"/><path class="cls-1" d="M139.6,96.1H137l-2-4.9h-7.2l-1.9,4.9h-2.4l6.6-16.2h2.5Zm-9.4-11.2-1.8,4.6h5.9l-1.9-4.6a8.8,8.8,0,0,1-.5-1.5,18.88,18.88,0,0,1-.6-1.8h0A31.82,31.82,0,0,1,130.2,84.9Z"/><path class="cls-1" d="M153.2,94.2h8.6v1.9H150.9V79.9h2.3V94.2Z"/><path class="cls-1" d="M201,81.8h-8.6v5h8v1.9h-8v5.5h9v1.9H190.1V79.9H201Z"/><path class="cls-1" d="M230.2,96.1l-.9,1.7a8,8,0,0,1-1.6-.8,23.26,23.26,0,0,1-2.1-1.5,9,9,0,0,1-4,.9,8.86,8.86,0,0,1-4.3-1.1,7.23,7.23,0,0,1-3-3,9,9,0,0,1-1.1-4.4,8.69,8.69,0,0,1,1.1-4.4,7.23,7.23,0,0,1,3-3,8.8,8.8,0,0,1,4.3-1,8.16,8.16,0,0,1,4.2,1,7.62,7.62,0,0,1,3,2.9,9,9,0,0,1,1.1,4.4,8.73,8.73,0,0,1-.7,3.7,7.72,7.72,0,0,1-1.9,2.7,18.45,18.45,0,0,0,1.6,1A2.38,2.38,0,0,0,230.2,96.1Zm-8.6-2.7.6-1.7a7.49,7.49,0,0,1,1.6.5,18.08,18.08,0,0,1,1.7,1,8,8,0,0,0,1.5-2.1,7.29,7.29,0,0,0,.5-3,7.55,7.55,0,0,0-.7-3.5,5.23,5.23,0,0,0-2.1-2.3,6.41,6.41,0,0,0-6.2,0,5.23,5.23,0,0,0-2.1,2.3,8,8,0,0,0-.7,3.6,7.12,7.12,0,0,0,.8,3.4,6.59,6.59,0,0,0,2.1,2.3,6.21,6.21,0,0,0,3.1.8,7.32,7.32,0,0,0,2.2-.3,5.36,5.36,0,0,0-1.1-.5A3.08,3.08,0,0,0,221.6,93.4Z"/><path class="cls-1" d="M244.5,89.6a7.54,7.54,0,0,0,.4,2.8,3.64,3.64,0,0,0,1.4,1.6,5.83,5.83,0,0,0,2.5.5,5.51,5.51,0,0,0,2.5-.5,3.17,3.17,0,0,0,1.4-1.6,7.22,7.22,0,0,0,.4-2.8V79.9h2.3v9.5a9,9,0,0,1-.7,4,4.29,4.29,0,0,1-2.2,2.2,8.33,8.33,0,0,1-3.8.7,8.78,8.78,0,0,1-3.9-.7,4.7,4.7,0,0,1-2.2-2.2,9.26,9.26,0,0,1-.7-4V79.9h2.3v9.7Z"/><path class="cls-1" d="M271.1,96.1h-2.3V79.9h2.3Z"/><path class="cls-1" d="M296.7,84.7a4.55,4.55,0,0,1-.8,2.7,4.25,4.25,0,0,1-2.2,1.7,9,9,0,0,1-3.4.6h-3.7v6.4h-2.3V79.9h6a8,8,0,0,1,4.7,1.2A4.2,4.2,0,0,1,296.7,84.7Zm-2.4,0a2.46,2.46,0,0,0-1-2.2,5.13,5.13,0,0,0-3-.7h-3.6v5.9h3.7a5.1,5.1,0,0,0,3-.8A2.41,2.41,0,0,0,294.3,84.7Z"/><path class="cls-1" d="M316,90.7a16.36,16.36,0,0,1,.7,2.1,4.5,4.5,0,0,1,.2.8h0c0-.1.2-.5.4-1.2l.5-1.5,4.1-11.1h3.2V96h-2.2V82.4h0l-5,13.6h-2.1l-5-13.8h-.1V96h-2.2V79.8H312Z"/><path class="cls-1" d="M349.3,81.8h-8.6v5h8v1.9h-8v5.5h9v1.9H338.4V79.9h10.9Z"/><path class="cls-1" d="M373.5,92.6h0V79.9h2.2V96.1h-2.4l-8.7-12.7h0V96.1h-2.2V79.9h2.4Z"/><path class="cls-1" d="M400.9,81.8h-5.5V96.1h-2.3V81.8h-5.5V79.9H401v1.9Z"/><path class="cls-1" d="M443.2,96.1h-2.6l-2-4.9h-7.2l-1.9,4.9h-2.4l6.6-16.2h2.5Zm-9.4-11.2L432,89.5h5.9L436,84.9a8.8,8.8,0,0,1-.5-1.5,18.88,18.88,0,0,1-.6-1.8h0A31.82,31.82,0,0,1,433.8,84.9Z"/><path class="cls-1" d="M465.7,92.6h0V79.9h2.2V96.1h-2.4l-8.7-12.7h0V96.1h-2.2V79.9H457Z"/><path class="cls-1" d="M495,87.9a10.32,10.32,0,0,1-.9,4.5,6.43,6.43,0,0,1-2.6,2.8,9,9,0,0,1-4.2.9h-6.2V79.9h6.4a8.16,8.16,0,0,1,4,.9,6.18,6.18,0,0,1,2.6,2.7A9.86,9.86,0,0,1,495,87.9Zm-2.3,0a6.65,6.65,0,0,0-1.4-4.6,5.29,5.29,0,0,0-4.1-1.5h-3.8V94.2h3.7a5.38,5.38,0,0,0,4.2-1.5A7.05,7.05,0,0,0,492.7,87.9Z"/><path class="cls-1" d="M530.9,81.5a6.21,6.21,0,0,0-3.1.8,5.37,5.37,0,0,0-1.9,2.3,8.84,8.84,0,0,0-.7,3.3,8,8,0,0,0,.7,3.6,4.85,4.85,0,0,0,1.9,2.3,6,6,0,0,0,6.3-.2,5.1,5.1,0,0,0,1.8-3l2.2.5a7.13,7.13,0,0,1-1.4,2.9,7.9,7.9,0,0,1-2.5,1.9,7.38,7.38,0,0,1-3.4.6,8.3,8.3,0,0,1-4.3-1,7.79,7.79,0,0,1-2.8-2.9,10.76,10.76,0,0,1-1-4.6,8.68,8.68,0,0,1,1-4.4,6.77,6.77,0,0,1,2.9-2.9,8.16,8.16,0,0,1,4.2-1,7.94,7.94,0,0,1,4.5,1.2,6.49,6.49,0,0,1,2.5,3.5l-2.3.5a5.39,5.39,0,0,0-1.7-2.6A4.77,4.77,0,0,0,530.9,81.5Z"/><path class="cls-1" d="M549.7,88.1a9,9,0,0,1,1.1-4.4,7.23,7.23,0,0,1,3-3,9.74,9.74,0,0,1,8.6,0,8.34,8.34,0,0,1,3,2.9,9.35,9.35,0,0,1,0,8.8,6.48,6.48,0,0,1-3,2.9,10.07,10.07,0,0,1-4.3,1,8.86,8.86,0,0,1-4.3-1.1,7.23,7.23,0,0,1-3-3A7.59,7.59,0,0,1,549.7,88.1Zm8.3-6.6a6.21,6.21,0,0,0-3.1.8,5.23,5.23,0,0,0-2.1,2.3,8,8,0,0,0-.7,3.6,7.84,7.84,0,0,0,.8,3.5,5,5,0,0,0,2.1,2.2,6.41,6.41,0,0,0,6.2,0,5.56,5.56,0,0,0,2.1-2.2,8.54,8.54,0,0,0,.1-7,5.23,5.23,0,0,0-2.1-2.3A5.69,5.69,0,0,0,558,81.5Z"/><path class="cls-1" d="M589.9,92.6h0V79.9h2.2V96.1h-2.4l-8.6-12.6h0V96.2h-2.2V80h2.4Z"/><path class="cls-1" d="M615.4,84.8a4,4,0,0,0-1.4-2.5,4.55,4.55,0,0,0-2.7-.8,6,6,0,0,0-2,.3,3.39,3.39,0,0,0-1.4.9,2.11,2.11,0,0,0-.5,1.3,1.59,1.59,0,0,0,.4,1.2,3.22,3.22,0,0,0,1.3.8c.6.2,1.5.4,2.6.7a16.61,16.61,0,0,1,3.7,1.1,4.58,4.58,0,0,1,2,1.5,4.14,4.14,0,0,1,.6,2.3,4.63,4.63,0,0,1-.8,2.5,5.43,5.43,0,0,1-2.2,1.7,8.29,8.29,0,0,1-3.2.6,8.46,8.46,0,0,1-5-1.4,6,6,0,0,1-2.3-4l2.3-.5a4.35,4.35,0,0,0,1.5,3,5.11,5.11,0,0,0,3.4,1,6.65,6.65,0,0,0,2.1-.3,3.07,3.07,0,0,0,1.5-1,2,2,0,0,0,.6-1.4,2.54,2.54,0,0,0-.5-1.6,3.54,3.54,0,0,0-1.6-.9c-.6-.2-1.4-.4-2.5-.7a7.83,7.83,0,0,1-1.4-.3,9.55,9.55,0,0,1-2.8-1.1,3.35,3.35,0,0,1-1.4-1.5,3.81,3.81,0,0,1-.4-1.9,3.72,3.72,0,0,1,.8-2.2,4.08,4.08,0,0,1,2.1-1.5,7.45,7.45,0,0,1,3.1-.6,8.29,8.29,0,0,1,3.2.6,5.24,5.24,0,0,1,2.2,1.6,4.3,4.3,0,0,1,1,2.5l-2.3.6Z"/><path class="cls-1" d="M633,89.6a7.54,7.54,0,0,0,.4,2.8,3.64,3.64,0,0,0,1.4,1.6,5.83,5.83,0,0,0,2.5.5,5.51,5.51,0,0,0,2.5-.5,3.17,3.17,0,0,0,1.4-1.6,7.22,7.22,0,0,0,.4-2.8V79.9h2.3v9.5a9,9,0,0,1-.7,4,4.29,4.29,0,0,1-2.2,2.2,8.33,8.33,0,0,1-3.8.7,8.78,8.78,0,0,1-3.9-.7,4.7,4.7,0,0,1-2.2-2.2,9.26,9.26,0,0,1-.7-4V79.9h2.3v9.7Z"/><path class="cls-1" d="M664.6,90.7a16.36,16.36,0,0,1,.7,2.1,4.5,4.5,0,0,1,.2.8h0c0-.1.2-.5.4-1.2l.5-1.5,4.1-11.1h3.2V96h-2.2V82.4h0l-5,13.6h-2.1l-5-13.8h-.1V96h-2.2V79.8h3.5Z"/><path class="cls-1" d="M701.3,96.1h-2.6l-2-4.9h-7.2l-1.9,4.9h-2.5l6.6-16.2h2.5Zm-9.4-11.2-1.8,4.6H696l-1.9-4.6a8.8,8.8,0,0,1-.5-1.5,18.88,18.88,0,0,1-.6-1.8h0A31.82,31.82,0,0,1,691.9,84.9Z"/><path class="cls-1" d="M724.7,84.1a3.38,3.38,0,0,1-.6,2,3.68,3.68,0,0,1-1.8,1.4,4.8,4.8,0,0,1,2.4,1.4,3.59,3.59,0,0,1,.8,2.5,4.09,4.09,0,0,1-.7,2.5,4.91,4.91,0,0,1-2.1,1.6,8.11,8.11,0,0,1-3.3.6h-6.8V79.9H719a8.72,8.72,0,0,1,3.1.5,3.58,3.58,0,0,1,1.9,1.5A3.23,3.23,0,0,1,724.7,84.1Zm-2.3,0a2,2,0,0,0-.9-1.7,5.46,5.46,0,0,0-2.9-.6H715v4.9h3.9a4.91,4.91,0,0,0,2.7-.6A2.48,2.48,0,0,0,722.4,84.1Zm.8,7.3a2.25,2.25,0,0,0-1.1-2.1,6.6,6.6,0,0,0-3.2-.7H715v5.6h4.2a4.74,4.74,0,0,0,3-.7A2.39,2.39,0,0,0,723.2,91.4Z"/><path class="cls-1" d="M740.3,94.2h8.6v1.9H738V79.9h2.3V94.2Z"/><path class="cls-1" d="M771.9,81.8h-8.6v5h8v1.9h-8v5.5h9v1.9H761V79.9h10.9v1.9Z"/><path class="cls-1" d="M794.9,84.8a4,4,0,0,0-1.4-2.5,4.55,4.55,0,0,0-2.7-.8,6,6,0,0,0-2,.3,3.39,3.39,0,0,0-1.4.9,2.11,2.11,0,0,0-.5,1.3,1.59,1.59,0,0,0,.4,1.2,3.22,3.22,0,0,0,1.3.8c.6.2,1.5.4,2.6.7a16.61,16.61,0,0,1,3.7,1.1,4.58,4.58,0,0,1,2,1.5,4.14,4.14,0,0,1,.6,2.3,4.63,4.63,0,0,1-.8,2.5,5.43,5.43,0,0,1-2.2,1.7,8.29,8.29,0,0,1-3.2.6,8.46,8.46,0,0,1-5-1.4,6,6,0,0,1-2.3-4l2.3-.5a4.35,4.35,0,0,0,1.5,3,5.11,5.11,0,0,0,3.4,1,6.65,6.65,0,0,0,2.1-.3,3.07,3.07,0,0,0,1.5-1,2,2,0,0,0,.6-1.4,2.54,2.54,0,0,0-.5-1.6,3.54,3.54,0,0,0-1.6-.9c-.6-.2-1.4-.4-2.5-.7a7.83,7.83,0,0,1-1.4-.3,9.55,9.55,0,0,1-2.8-1.1,3.35,3.35,0,0,1-1.4-1.5,3.81,3.81,0,0,1-.4-1.9,3.72,3.72,0,0,1,.8-2.2,4.08,4.08,0,0,1,2.1-1.5,7.45,7.45,0,0,1,3.1-.6,8.29,8.29,0,0,1,3.2.6,5.24,5.24,0,0,1,2.2,1.6,4.3,4.3,0,0,1,1,2.5l-2.3.6Z"/><path class="cls-1" d="M150,1.32h35.54q12.1,0,19.25,3.55a27.46,27.46,0,0,1,11.4,10.53,31.45,31.45,0,0,1,4.26,16.73,32.2,32.2,0,0,1-2.17,12.14,28.92,28.92,0,0,1-6.44,9.65,30.05,30.05,0,0,1-9.19,6.45A43.32,43.32,0,0,1,192.21,63a75.58,75.58,0,0,1-10.86,1H150V55.38h2.35a10.76,10.76,0,0,0,3.91-.45,3.49,3.49,0,0,0,1.51-1.53,11,11,0,0,0,.39-3.73V15.4a10.49,10.49,0,0,0-.41-3.72,2.77,2.77,0,0,0-1.37-1.26,12.14,12.14,0,0,0-4-.42H150Zm24.83,10V50.43a7,7,0,0,0,.24,2.43,2,2,0,0,0,1.14.92,15.15,15.15,0,0,0,3.62.25q8,0,12.46-2.28a17.12,17.12,0,0,0,7.27-7.3,24.49,24.49,0,0,0,2.76-12,25.7,25.7,0,0,0-2.6-11.92,16.06,16.06,0,0,0-6.43-7.15q-3.84-2.07-11-2.07Z"/><path class="cls-1" d="M215.11,1.32h29.83V10a20.19,20.19,0,0,0-3.57.18,2.34,2.34,0,0,0-1.22.78,2.11,2.11,0,0,0-.51,1.38,14.54,14.54,0,0,0,.63,2.92l9.06,32.45,7.93-23.11-3.09-9.34a8.65,8.65,0,0,1-.39-1.12A5.67,5.67,0,0,0,251.89,11a6.63,6.63,0,0,0-3.65-1V1.32h28.32V10h-2.28a6.12,6.12,0,0,0-3.21.54,2.32,2.32,0,0,0-1,1.93,16.83,16.83,0,0,0,.72,3.47l8,29,8.28-29A23.35,23.35,0,0,0,288,12.2a1.84,1.84,0,0,0-.87-1.64,6.77,6.77,0,0,0-3.3-.56h-2.48V1.32h25.75V10a10.67,10.67,0,0,0-4,.52,4.82,4.82,0,0,0-2,1.59,18.57,18.57,0,0,0-1.92,4.55l-15,47.4H269.52L261.63,39,253.2,64.06H237.94L222.78,15.93a14.36,14.36,0,0,0-1.7-4.07,4.57,4.57,0,0,0-2-1.41,11.25,11.25,0,0,0-4-.45Z"/><path class="cls-1" d="M337.94.24q16.14,0,26.12,9.08t10,23.35a31.84,31.84,0,0,1-4.57,17,30.4,30.4,0,0,1-12.6,11.44q-8,4-19.41,4-15,0-24.59-7.65-11.55-9.21-11.56-24.64,0-14.35,10.13-23.48T337.94.24m.2,10a15.32,15.32,0,0,0-12.29,5.36q-5.75,6.74-5.74,17.4t5.35,16.87a16.65,16.65,0,0,0,24.38,0q5.4-6.35,5.4-17a30.29,30.29,0,0,0-2.31-12.55,17.11,17.11,0,0,0-6.24-7.6,15.58,15.58,0,0,0-8.55-2.52"/><path class="cls-1" d="M372.69,1.32H414.5a63.43,63.43,0,0,1,8.82.67A23.07,23.07,0,0,1,432,5a17.14,17.14,0,0,1,6,5.8,14.88,14.88,0,0,1,2.14,7.92,14.15,14.15,0,0,1-5.51,11.58A28.54,28.54,0,0,1,421.56,36l13.95,15,.58.68A13.26,13.26,0,0,0,438.57,54a7.76,7.76,0,0,0,2.23,1.05,11.56,11.56,0,0,0,3.11.32h2.92v8.68H425.11L403.34,37h-5.63v12.5a13,13,0,0,0,.39,4.12,2.57,2.57,0,0,0,1.24,1.3,8.71,8.71,0,0,0,3.42.43h3.11v8.68H372.69V55.38h3a8.79,8.79,0,0,0,3.4-.47,3.21,3.21,0,0,0,1.49-1.42,12.64,12.64,0,0,0,.24-3.37V14.81a8.27,8.27,0,0,0-.37-3,1.89,1.89,0,0,0-1.19-1.14,6.9,6.9,0,0,0-2.69-.5l-1.37,0h-2.54Zm25,10.3V27.85h10.06a28.84,28.84,0,0,0,8.86-1,9.24,9.24,0,0,0,4.42-2.9,7.2,7.2,0,0,0,1.49-4.59,6.74,6.74,0,0,0-1.39-4.25,8.07,8.07,0,0,0-3.94-2.63,28.84,28.84,0,0,0-8.33-.85Z"/><path class="cls-1" d="M449.48,1.32h33.08V10h-2.19a13.59,13.59,0,0,0-3.88.31,3.34,3.34,0,0,0-1.68,1.4,7.6,7.6,0,0,0-.51,3.38v16.7l21.13-18.15a12.27,12.27,0,0,0,1.7-1.64,1.35,1.35,0,0,0,.29-.74,1,1,0,0,0-.56-.95A7.53,7.53,0,0,0,494,10H491.3V1.32H522V10h-1a14.81,14.81,0,0,0-3,.2,8,8,0,0,0-2,.88,25.3,25.3,0,0,0-3.09,2.2L496.5,26.4,516,50.84a15.47,15.47,0,0,0,3.69,3.73,9.91,9.91,0,0,0,4.47.81h1.32v8.68H491.3V55.38h1.36a17.53,17.53,0,0,0,4.55-.32c.53-.2.8-.47.8-.8a7.16,7.16,0,0,0-1.51-2.57L484.58,36,474.3,44.19V50.5a7.29,7.29,0,0,0,.49,3.22A2.73,2.73,0,0,0,476.17,55a11.16,11.16,0,0,0,3.62.38h2.77v8.68H449.48V55.38H452a11.15,11.15,0,0,0,3.86-.43,2.72,2.72,0,0,0,1.42-1.37,10.38,10.38,0,0,0,.39-3.69V15.62a10.36,10.36,0,0,0-.44-3.73,3,3,0,0,0-1.42-1.42,9.13,9.13,0,0,0-3.52-.47h-2.78Z"/><path class="cls-1" d="M576.28,1.32l5.83,21.05L573,24.75q-4.5-7.53-10.23-11a23,23,0,0,0-12.18-3.5A11.87,11.87,0,0,0,544,11.8q-2.4,1.57-2.4,3.51a5.42,5.42,0,0,0,2.19,4.1q2.13,1.89,7.87,3.37l13,3.52q10.85,2.88,15.45,7.65a15.75,15.75,0,0,1,4.57,11.2q0,8.16-7,13.78-7.83,6.21-19.44,6.21a36.41,36.41,0,0,1-9.91-1.28,37.81,37.81,0,0,1-9.42-4.3l-2.14,4.5h-7.24l-4.81-24.33,9.09-2a29.82,29.82,0,0,0,10,12.4,24.64,24.64,0,0,0,14.89,5,18.32,18.32,0,0,0,6-.85,7.84,7.84,0,0,0,3.62-2.38,5,5,0,0,0,1.21-3.15,5.56,5.56,0,0,0-2.82-4.63q-2.87-1.94-10-3.82l-11.33-3.06a54.87,54.87,0,0,1-7-2.54,26,26,0,0,1-6.75-3.89,16.07,16.07,0,0,1-3.91-5.2,15.05,15.05,0,0,1-1.55-6.68,15.57,15.57,0,0,1,3-9.2,21,21,0,0,1,9-6.81A33,33,0,0,1,551.55.24a30.53,30.53,0,0,1,15.89,4.22l1.89-3.14Z"/><path class="cls-1" d="M130.16,46V19.44h-8.65v2.38a10.83,10.83,0,0,1-.58,4.39A3.54,3.54,0,0,1,119,27.83a17.07,17.07,0,0,1-5.17.51h-3.52v8.77h3.18a19.51,19.51,0,0,1,5.39.46,3.6,3.6,0,0,1,1.92,1.72,8.63,8.63,0,0,1,.7,4V46Z"/><path class="cls-1" d="M94.75,24.26h15.69V11.35h10.34a33,33,0,0,1,8.43,1,14.78,14.78,0,0,1,6.61,3.94A26.66,26.66,0,0,1,141,24.07l8.79-2.92L142.1,1.32H85.51V6.88h9.24Z"/><path class="cls-1" d="M144.17,37.9a26.23,26.23,0,0,1-5.28,9,20.48,20.48,0,0,1-7.8,5.47A29.81,29.81,0,0,1,120.35,54h-5.69a10.59,10.59,0,0,1-3-.27,1.62,1.62,0,0,1-.94-.77,8.58,8.58,0,0,1-.25-2.79V41.12H94.75V58.5H85.51v5.56h58.63L153,40.74Z"/><path class="cls-1" d="M77.51,41.12H61.41v9.54A7.17,7.17,0,0,1,61,53.74,2.81,2.81,0,0,1,59.52,55a11.34,11.34,0,0,1-3.75.41H53.25v8.68h32.6V58.5H77.51Z"/><path class="cls-1" d="M61.41,24.26h16.1V6.88h8.34V1.32H54.64L42.45,39.53,30.68,1.32H0V10H3.71a6.45,6.45,0,0,1,2.79.45,2.82,2.82,0,0,1,1.32,1.44A9,9,0,0,1,8.16,15V50.21A8.41,8.41,0,0,1,7.7,53.6,2.79,2.79,0,0,1,6.28,55a9.71,9.71,0,0,1-3.54.43H0v8.68H27.79V55.38H24.54a8.88,8.88,0,0,1-3-.38A3.24,3.24,0,0,1,20,53.9a3.48,3.48,0,0,1-.51-2V13.73l16,50.33h9.37l16.52-52Z"/><rect class="cls-1" x="61.4" y="23.14" width="0.31" height="18.39"/><rect class="cls-1" x="110.1" y="23.14" width="0.31" height="18.39"/></g></g></svg>