<?xml version="1.0" encoding="utf-8"?>
<!-- Generator: Adobe Illustrator 24.3.0, SVG Export Plug-In . SVG Version: 6.00 Build 0)  -->
<svg version="1.1" id="Layer_1" xmlns="http://www.w3.org/2000/svg" xmlns:xlink="http://www.w3.org/1999/xlink" x="0px" y="0px"
	 viewBox="0 0 63 73.8" style="enable-background:new 0 0 63 73.8;" xml:space="preserve">
<style type="text/css">
	.st0{fill:#D9D9D9;}
</style>
<g>
	<path class="st0" d="M22.1,1.1c4.2,0,8.4,0,12.6,0c0.8,0,1.4,0.3,1.8,1c4.3,7.3,8.6,14.7,12.9,22c1.3,2.2,1.6,4.5,1,7
		c-2.4,9.2-4.7,18.3-7.1,27.5c-0.5,1.9,0.2,3.1,2,3.7c2.5,0.8,4.9,1.5,7.4,2.3c2.3,0.7,3.2,2.9,2.1,5c-1.3,2.5-3.5,3.7-6.2,3.5
		c-1.9-0.1-3.8-0.5-5.8-0.8c-2.8-0.5-5.5-0.2-8.2,0.4c-1.4,0.3-2.9,0.4-4.4,0.4c-2.8,0-5-2.2-5.2-5.1c-0.1-2,0.3-4,1.2-5.8
		c0.9-1.8,1.3-3.7,1.3-5.6c0.2-4,0.2-8.1,0.3-12.1c0.1-4.3,0.4-8.7,1.9-12.8c0.4-1.1,0.1-1.7-0.5-2.5c-2.1-2.4-4.7-4.4-7.2-6.4
		c-3.1-2.4-6-5-8.4-8.1c-2.7-3.6-4.5-7.7-5.7-12C7.6,1.6,8.1,1.1,9.2,1.1c3.8,0,7.6,0,11.5,0C21.1,1.1,21.6,1.1,22.1,1.1z M10.4,3.2
		c0.1,0.3,0.1,0.4,0.1,0.6c1.4,4.5,3.6,8.7,7,12c2.6,2.5,5.3,4.7,8.1,7c2.3,2,4.7,4,6.4,6.5c0.4,0.5,0.4,1,0.2,1.6
		c-1.5,3.5-2,7.2-2.1,10.9c-0.2,4.5-0.2,8.9-0.3,13.4c-0.1,2.8-0.5,5.5-1.7,8.1c-0.6,1.2-0.9,2.7-0.9,4c-0.1,2.2,1.3,3.6,3.2,3.5
		c1.1,0,2.1-0.1,3.2-0.3c3.4-0.8,6.8-0.9,10.2-0.4c1.7,0.3,3.4,0.6,5.1,0.7c1.6,0.1,2.9-0.6,3.9-2c0.8-1.2,0.5-1.9-0.8-2.3
		c-2.4-0.8-4.8-1.5-7.2-2.2c-2.9-0.9-4.2-3.2-3.5-6.1c2.4-9.3,4.7-18.5,7.1-27.8c0.5-1.9,0.3-3.7-0.7-5.4c-4.2-7-8.3-14-12.4-21.1
		c-0.3-0.5-0.7-0.7-1.3-0.7c-7.5,0-15,0-22.4,0C11.1,3.2,10.8,3.2,10.4,3.2z"/>
	<path class="st0" d="M37.1,30c0.2,0,0.7,0,1,0.2c0.8,0.5,1.4,0.3,2.1-0.3c0.5-0.4,1.2-0.6,1.8-0.7c1.2-0.1,2.1,0.5,2.7,1.5
		c0.6,1,0.5,2.1-0.1,3.1c0,0.1-0.1,0.1-0.1,0.2c-2,1.6-2.1,4-2.4,6.3c-0.7,4.1-1.3,8.2-2,12.3c-0.1,0.8-0.6,1.1-1.2,1
		c-0.7-0.1-1-0.6-0.9-1.3c0.3-2.4,0.7-4.8,1.1-7.3c0.5-3.1,1-6.1,1.5-9.2c0.1-0.5,0.3-0.9,0.6-1.3c0.4-0.6,1-1,1.5-1.5
		c0.4-0.4,0.5-0.8,0.1-1.3c-0.4-0.4-0.9-0.5-1.3-0.1c0,0-0.1,0.1-0.1,0.1c-1.1,1.3-2.4,1.3-3.8,0.4c-0.5-0.3-1-0.3-1.3,0.2
		c-0.4,0.5-0.2,1,0.3,1.3c1.5,1.1,1.8,2.5,1.4,4.4c-1.1,5.9-2,11.8-2.9,17.8c-0.1,0.8-0.6,1.2-1.3,1.1c-0.6-0.1-1-0.6-0.9-1.4
		c0.4-2.7,0.8-5.5,1.3-8.2c0.6-3.6,1.1-7.1,1.7-10.7c0-0.2-0.1-0.5-0.3-0.7c-0.4-0.5-0.9-0.9-1.2-1.4c-0.7-1-0.7-2.1-0.1-3.2
		C34.8,30.5,35.7,30.1,37.1,30z"/>
	<path class="st0" d="M44.5,24.3c0,2.4-1.8,3.8-3.7,3.3c-0.9-0.2-1.4-0.1-2.1,0.6c-1,1.2-2.7,1.3-3.9,0.5C33.6,28,33,26.4,33.6,25
		c0.6-1.2,0.3-1.9-0.5-2.9c-2.4-3-4.8-6.2-7.1-9.2c-0.5-0.7-0.5-1.3,0-1.7c0.5-0.4,1.1-0.3,1.7,0.4c1.8,2.3,3.5,4.6,5.3,6.8
		c1,1.2,1.9,2.5,2.9,3.7c0.6,0.7,0.7,1.3,0.3,2.1c-0.2,0.5-0.5,1-0.5,1.6c0,0.3,0.1,0.9,0.3,1c0.3,0.2,0.8,0.1,1.1-0.1
		c0.4-0.2,0.8-0.7,1.1-1c0.5-0.6,1-0.6,1.7-0.5c0.4,0.1,0.8,0.2,1.2,0.3c0.5,0.1,1,0,1.2-0.5c0.2-0.6-0.1-1-0.6-1.2
		c-0.6-0.2-1.2-0.4-1.8-0.8c-0.4-0.2-0.9-0.5-1.2-1c-3.1-4.7-6.2-9.5-9.3-14.3c-0.5-0.7-0.5-1.4,0.1-1.7c0.6-0.4,1.2-0.2,1.7,0.6
		c1.5,2.2,2.9,4.5,4.4,6.7c1.5,2.3,3.1,4.7,4.6,7c0.2,0.3,0.6,0.6,1,0.8c0.5,0.3,1.1,0.4,1.6,0.7C43.9,22.5,44.5,23.4,44.5,24.3z"/>
	<path class="st0" d="M15.7,8c0.2,0.1,0.6,0.3,0.8,0.6c0.5,0.7,1,1.4,1.4,2.1c0.4,0.6,0.2,1.3-0.3,1.6c-0.5,0.3-1.2,0.2-1.6-0.4
		c-0.5-0.8-1-1.5-1.5-2.3C14.2,8.9,14.7,8,15.7,8z"/>
</g>
</svg>
