<?xml version="1.0" encoding="utf-8"?>
<!-- Generator: Adobe Illustrator 24.3.0, SVG Export Plug-In . SVG Version: 6.00 Build 0)  -->
<svg version="1.1" id="Layer_1" xmlns="http://www.w3.org/2000/svg" xmlns:xlink="http://www.w3.org/1999/xlink" x="0px" y="0px"
	 viewBox="0 0 63 73.8" style="enable-background:new 0 0 63 73.8;" xml:space="preserve">
<style type="text/css">
	.st0{fill:#D9D9D9;}
</style>
<g>
	<path class="st0" d="M2.1,43c0.5-1.4,1.4-2.4,3-2.6c0-0.4,0-0.8,0-1.1c0-1.3,1-2.3,2.3-2.3c1.5,0,3,0,4.5,0c1.3,0,2.2,0.8,2.3,2.1
		c0,0.4,0,0.8,0,1.3c0.3,0,0.5,0,0.8,0c3.4,0,6.9,0,10.3,0c0.2,0,0.4,0,0.6,0c0.5,0.1,0.8,0.4,0.8,0.8c0,0.4-0.3,0.8-0.7,0.9
		c-0.2,0-0.4,0-0.6,0c-6.5,0-13,0-19.6,0c-1.5,0-2,0.5-2,1.9c0,0.3,0,0.5,0,0.8c18.5,0,36.9,0,55.3,0c0-0.5,0.1-1,0-1.5
		c-0.1-0.8-0.7-1.2-1.5-1.2c-1.3,0-2.6,0-4,0c-8,0-16,0-24,0c-0.2,0-0.4,0-0.6,0c-0.5-0.1-0.8-0.4-0.7-0.9c0-0.5,0.3-0.8,0.8-0.8
		c0.2,0,0.3,0,0.5,0c9.3,0,18.6,0,27.8,0c1.9,0,3.2,1.2,3.4,2.6c0.1,1,0.1,2,0,3c0,0.5-0.5,0.7-1,0.7c-0.9,0-1.8,0-2.7,0
		c0,0.3,0,0.5,0,0.7c0,1.9-1.2,3.1-3.1,3.1c-4.6,0-9.3,0-13.9,0c-1.3,0-2.5,0.2-3.7,0.7c-1.7,0.7-3.5,1.3-5.4,2
		c0.2,0.1,0.3,0.2,0.4,0.3c2,1.3,4,2.5,6,3.8c0.2,0.2,0.6,0.2,0.9,0.2c2.3,0,4.6,0.1,6.9,0c1.7-0.1,2.7,1.2,2.5,2.6
		c0,0.2,0,0.5,0,0.7c-0.1,0.8,0,1.4,0.9,1.9c1,0.6,1.3,2,0.9,3.1c-0.4,1.2-1.5,1.9-2.8,1.8c-1.2,0-2.2-0.9-2.5-2.1
		c-0.3-1.2,0.1-2.4,1.2-3c0.6-0.3,0.7-0.7,0.7-1.3c0-0.4,0-0.8,0-1.2c0-0.7-0.1-0.8-0.8-0.8c-2.4,0-4.9,0-7.3,0
		c-7.3,0-14.6,0-21.9,0c-0.9,0-0.9,0-0.9,0.9c0,0.2,0,0.5,0,0.7c-0.1,0.8,0,1.3,0.8,1.8c1.1,0.6,1.3,2,0.9,3.2
		c-0.5,1.2-1.6,1.9-2.9,1.8c-1.1-0.1-2.2-1-2.4-2.1c-0.3-1.2,0.2-2.4,1.3-3c0.4-0.2,0.6-0.5,0.6-1c0-0.6,0-1.3,0-1.9
		c0.1-1.2,1-2,2.2-2c2.3,0,4.6,0,6.8,0c0.1,0,0.2,0,0.4,0c0-0.7,0-1.5,0-2.2c0-0.6,0.2-1,0.9-1.2c1.1-0.4,2.2-0.8,3.4-1.3
		c-1.2-0.8-2.4-1.5-3.5-2.2c-0.1-0.1-0.4-0.1-0.6-0.1c-1.8,0-3.7,0-5.5,0c-0.2,0-0.6,0-0.7-0.1c-0.2-0.2-0.5-0.6-0.4-0.8
		c0-0.3,0.4-0.6,0.7-0.7c0.2-0.1,0.5,0,0.7,0c12,0,23.9,0,35.9,0c1.3,0,1.7-0.4,1.7-1.7c0-0.1,0-0.2,0-0.3c-15.9,0-31.8,0-47.7,0
		c0,0.2,0,0.4,0,0.5c0,1,0.4,1.4,1.4,1.5c1.4,0,2.8,0,4.2,0c0.2,0,0.3,0,0.5,0c0.5,0.1,0.8,0.4,0.8,0.8c0,0.5-0.3,0.9-0.8,0.9
		c-1.8,0-3.6,0.1-5.4,0c-1.5-0.1-2.5-1.4-2.5-3c0-0.2,0-0.5,0-0.8c-0.9,0-1.7,0-2.6,0c-0.5,0-0.9-0.1-1.2-0.6
		C2.1,45.1,2.1,44.1,2.1,43z M34.3,57.5c0,0,0.1-0.1,0.1-0.1c-0.1,0-0.2,0-0.2-0.1c-1.7-1.1-3.3-2.1-5-3.2c-0.1-0.1-0.4-0.1-0.5,0
		c-1.2,0.4-2.5,0.9-3.7,1.4c-0.1,0.1-0.3,0.2-0.3,0.3c0,0.6,0,1.1,0,1.7C27.9,57.5,31.1,57.5,34.3,57.5z M12.4,40.4c0-0.4,0-0.7,0-1
		c0-0.4-0.2-0.6-0.6-0.6c-1.5,0-3,0-4.5,0c-0.2,0-0.5,0.3-0.5,0.5c-0.1,0.3,0,0.7,0,1.1C8.7,40.4,10.5,40.4,12.4,40.4z M32.9,50.7
		C32.9,50.7,32.9,50.6,32.9,50.7c-2-0.1-3.9-0.1-6-0.1c0.8,0.5,1.4,0.9,2.1,1.3c0.1,0.1,0.3,0.1,0.4,0
		C30.5,51.5,31.7,51.1,32.9,50.7z M46.9,63.8c-0.6,0-1.1,0.5-1.1,1.1c0,0.6,0.5,1.1,1.1,1c0.5,0,1-0.5,1-1
		C48,64.3,47.5,63.8,46.9,63.8z M15.3,64.9c0-0.6-0.4-1-1-1c-0.6,0-1,0.5-1,1c0,0.6,0.5,1.1,1.1,1.1C14.9,65.9,15.3,65.5,15.3,64.9z
		"/>
	<path class="st0" d="M20.5,8.9c1.4,0.4,2.3,1.4,3.4,2.5c0.4-0.4,0.7-0.9,1.1-1.2c0.6-0.6,1.1-0.5,1.6,0.2c0.3,0.5,0.6,1,1,1.5
		c1.1,1.4,1.2,2.9,0.2,4.4c0.2,0.2,0.4,0.4,0.6,0.6c0.7,0.8,0.6,1.8-0.1,2.6c-0.3,0.4-0.7,0.7-1.1,1.1c-1,1-2.1,1-3.1,0
		c-0.1-0.1-0.2-0.2-0.3-0.3c-0.2,0.1-0.3,0.2-0.4,0.3c0.1,0.2,0.3,0.3,0.4,0.4c0.9,1,0.9,2.1,0,3c-0.3,0.3-0.6,0.6-0.9,0.9
		c-1,1-2.1,1-3.2,0c-0.1-0.1-0.2-0.2-0.3-0.3c-0.1,0.1-0.2,0.2-0.4,0.3c0.6,0.5,1.1,1.1,1.1,2c-0.1,1.2-2,3.1-3.2,3
		c-0.4,0-0.9-0.3-1.3-0.5c-0.2-0.1-0.3-0.4-0.4-0.6c-1.7,1.1-3.1,1-4.6-0.1c-0.5-0.4-1-0.7-1.5-1c-0.6-0.4-0.6-0.9-0.1-1.5
		c0.4-0.4,0.8-0.7,1.3-1.3c-0.4-0.4-0.9-0.7-1.2-1c-1.8-1.8-1.8-4.2,0-6c0.8-0.8,1.6-1.6,2.3-2.3c-0.6-0.7-1.2-1.4-1.8-2
		c-0.1-0.1-0.4-0.1-0.6-0.1c-1.8,0-3.6,0-5.5,0c-0.5,0-0.9-0.1-1.3-0.5c0-0.2,0-0.5,0-0.7c0.3-0.4,0.7-0.6,1.2-0.6c2,0,4,0,6,0
		c0.5,0,0.8,0.1,1.2,0.5c0.7,0.7,1.4,1.4,2.2,2.1c1.1-1.1,2.1-2.1,3.2-3.2c0.9-0.9,1.8-1.8,3.1-2.2C19.4,8.9,19.9,8.9,20.5,8.9z
		 M22.5,12.4c-0.4-0.3-0.7-0.7-1.1-1c-1.1-1.1-2.4-1.1-3.4,0c-1.2,1.2-2.4,2.4-3.6,3.6c-1.4,1.4-2.9,2.9-4.3,4.3
		c-0.8,0.8-1,2-0.3,2.9c0.4,0.6,1,1,1.4,1.5C15,19.9,18.7,16.2,22.5,12.4z M25.6,12.1c-4.9,4.9-9.8,9.8-14.7,14.7
		c0.2,0.2,0.5,0.3,0.8,0.5c1.2,0.8,1.7,0.7,2.7-0.2c3.2-3.2,6.5-6.5,9.7-9.7c0.7-0.7,1.4-1.4,2.1-2.1c0.5-0.5,0.6-1.1,0.4-1.7
		C26.2,13,25.8,12.5,25.6,12.1z M22.1,21.9c-0.5,0.5-1,1-1.5,1.5c0.5,0.6,0.5,0.6,1.1,0c0.1-0.1,0.2-0.2,0.4-0.4
		C22.7,22.4,22.7,22.4,22.1,21.9z M16.2,27.5c0,0.1,0,0.2,0,0.3c0.3,0.1,0.7,0.3,0.8,0.2c0.5-0.3,0.9-0.8,1.4-1.2
		c-0.3-0.3-0.5-0.5-0.7-0.7c-0.1,0.1-0.2,0.2-0.3,0.2C17,26.8,16.6,27.2,16.2,27.5z M25,19c0.6,0.7,0.6,0.7,1.2,0.1
		c0.1-0.1,0.3-0.3,0.4-0.4c0.6-0.6,0.6-0.7-0.1-1.1C25.9,18,25.4,18.5,25,19z"/>
	<path class="st0" d="M46.5,33.3c-3.9,0-7.9,0-11.8,0c-0.7,0-1.5-0.1-1.9-0.7c-0.3-0.4-0.5-0.9-0.5-1.3c0-5.3,0-10.6,0-16
		c0-1.1,0.8-1.9,1.9-2c0.2,0,0.3,0,0.5,0c5.3,0,10.6,0,15.9,0c0.2,0,0.3,0,0.5,0c0.5,0.1,0.8,0.3,0.8,0.8c0,0.5-0.3,0.8-0.7,0.9
		c-0.2,0-0.4,0-0.6,0c-5.3,0-10.5,0-15.8,0C34,15,34,15,34,15.8c0,5,0,9.9,0,14.9c0,0.8,0,0.8,0.8,0.8c7.8,0,15.7,0,23.5,0
		c0.8,0,0.8,0,0.8-0.8c0-5,0-9.9,0-14.9c0-0.8,0-0.8-0.8-0.8c-1.2,0-2.4,0-3.6,0c-0.7,0-1.1-0.3-1.1-0.9c0-0.5,0.4-0.9,1.1-0.9
		c1.3,0,2.6,0,3.9,0c1.4,0,2.2,0.9,2.2,2.3c0,5.1,0,10.3,0,15.4c0,1.2-0.8,2.4-2.4,2.4C54.5,33.3,50.5,33.3,46.5,33.3z"/>
	<path class="st0" d="M46,22.6c-0.4,0.5-0.7,1-1.1,1.4c-0.2,0.2-0.6,0.4-0.9,0.4c-0.8,0.1-1.5,0-2.3,0c-0.6,0-1-0.4-1-0.9
		c0-0.5,0.4-0.8,1-0.8c0,0,0.1,0,0.1,0c1.4,0.3,2.4-0.3,3-1.5c0.1-0.3,0.3-0.5,0.5-0.7c0.6-0.7,1.3-0.6,1.7,0.2
		c0.6,1.3,1.2,2.5,1.7,3.8c0.1,0.2,0.2,0.4,0.3,0.7c0.1-0.7,0.2-1.2,0.3-1.8c0-0.2,0.1-0.5,0.1-0.7c0.2-0.7,0.9-0.9,1.4-0.5
		c0.2,0.2,0.4,0.5,0.7,0.8c0.5-0.9,0.9-1.7,1.3-2.5c0.1-0.2,0.2-0.4,0.3-0.5c0.3-0.2,0.6-0.5,0.9-0.4c0.3,0.1,0.6,0.4,0.7,0.7
		c0.2,0.6,0.2,1.3,0.2,1.9c0,0.4,0.1,0.6,0.5,0.5c0.2,0,0.3,0,0.5,0c0.5,0,0.8,0.4,0.8,0.9c0,0.5-0.3,0.8-0.8,0.9
		c-0.6,0-1.2,0-1.8,0c-0.6,0-0.8-0.4-0.9-1c-0.3,0.5-0.5,0.9-0.7,1.3c-0.5,0.9-0.9,1-1.7,0.3c0,0-0.1-0.1-0.2-0.1
		c-0.2,1.1-0.4,2.2-0.6,3.2c-0.1,0.5-0.3,0.8-0.8,0.9c-0.6,0.1-0.8-0.3-1-0.7c-0.8-1.8-1.6-3.5-2.4-5.3C46.2,22.9,46.1,22.8,46,22.6
		z"/>
	<path class="st0" d="M37.6,27.6c-0.3,0-0.7,0-1,0c-0.6,0-0.9-0.4-0.9-0.9c0-0.5,0.3-0.9,0.9-0.9c0.7,0,1.3,0,2,0
		c0.5,0,0.9,0.4,0.9,0.9c0,0.5-0.3,0.8-0.9,0.9c0,0-0.1,0-0.1,0C38.1,27.6,37.9,27.6,37.6,27.6C37.6,27.6,37.6,27.6,37.6,27.6z"/>
	<path class="st0" d="M37.6,19.5c0.3,0,0.7,0,1,0c0.5,0.1,0.8,0.3,0.9,0.8c0,0.5-0.3,0.9-0.8,0.9c-0.7,0-1.4,0-2.1,0
		c-0.6,0-0.8-0.4-0.8-0.9c0-0.5,0.4-0.8,0.9-0.8C36.9,19.5,37.3,19.5,37.6,19.5z"/>
	<path class="st0" d="M37.6,22.7c0.4,0,0.7,0,1.1,0c0.5,0,0.7,0.3,0.8,0.8c0,0.5-0.3,0.9-0.8,0.9c-0.7,0-1.4,0-2.1,0
		c-0.5,0-0.8-0.4-0.8-0.9c0-0.5,0.3-0.8,0.8-0.9c0,0,0.1,0,0.1,0C37,22.7,37.3,22.7,37.6,22.7C37.6,22.7,37.6,22.7,37.6,22.7z"/>
	<path class="st0" d="M37.6,16.3c0.3,0,0.6,0,1,0c0.5,0,0.8,0.3,0.8,0.8c0,0.5-0.3,0.9-0.8,0.9c-0.7,0-1.5,0-2.2,0
		c-0.5,0-0.8-0.4-0.8-0.9c0-0.5,0.3-0.8,0.8-0.8C36.9,16.3,37.3,16.3,37.6,16.3C37.6,16.3,37.6,16.3,37.6,16.3z"/>
</g>
</svg>
