<?xml version="1.0" encoding="utf-8"?>
<!-- Generator: Adobe Illustrator 24.3.0, SVG Export Plug-In . SVG Version: 6.00 Build 0)  -->
<svg version="1.1" id="Layer_1" xmlns="http://www.w3.org/2000/svg" xmlns:xlink="http://www.w3.org/1999/xlink" x="0px" y="0px"
	 viewBox="0 0 63 73.8" style="enable-background:new 0 0 63 73.8;" xml:space="preserve">
<style type="text/css">
	.st0{fill:#D9D9D9;}
</style>
<g>
	<g>
		<path class="st0" d="M36,72c-1.8,0-3.1-1.2-3.3-3.2c-0.1-0.8-0.2-1.6-0.3-1.8c-0.2-0.1-1-0.1-1.8-0.1c-1.5,0-2.9,0-4.4,0
			c-2.9,0-5.9,0-8.8,0c-4.7,0-7.9-3.1-7.9-7.6c0-4.5,3.3-7.6,7.9-7.6c6.5,0,13.1,0,19.5,0c2.6,0,5.2,0,7.9,0c0.1,0,0.2,0,0.4,0
			c0.3,0,0.6,0,0.9,0c0.4,0,0.8-0.1,0.9-0.2c0.2-0.2,0.2-0.5,0.2-0.7c0-0.5-0.1-0.9-1.2-0.9c0,0,0,0,0,0c-0.8,0-1.6,0-2.4,0l-0.7,0
			c-2.4,0-4.8,0-7.2,0c-5.5,0-11.2-0.1-16.8,0.1c-2.9,0.1-5.6-1-7.4-2.9c-1.7-1.8-2.6-4.3-2.4-7c0.1-1.1,0.1-2.2,0-3.4
			c0-0.8,0-1.7,0-2.6c0.1-2.3,1.1-4.3,2.9-5.6c1.8-1.3,4.1-1.6,6.2-0.9c1,0.3,2,0.7,3,1.1c0.2,0.1,0.5,0.2,0.7,0.3
			c1.9,0.7,3.6,0.5,5.4-0.7c1.8-1.3,3-3,3.7-5.4c0.4-1.5,0.2-2.6-0.9-3.8c-3.3-3.7-5-8-4.9-12.8c0-0.5,0.1-1.1,0.1-1.7
			c0.3-2,1.7-3.1,3.6-2.9c1.9,0.2,3.1,1.4,3.1,3.5c0,0.3,0,0.6,0,0.9c0,0.5,0,0.9,0,1.3c0.1,3.6,1.5,5.2,5,6
			c0.3,0.1,0.6,0.1,0.9,0.2c1.9,0.4,3.9,0.9,5.7,1.8c4.4,2.2,7.2,5.8,7.8,10c0.6,4.3-1.2,8.6-4.9,12c-5.9,5.3-12.9,4.9-17.7,4
			c-3.8-0.6-6.8-2.2-9.3-4.8c-0.8-0.8-1.8-1.5-3.2-2.3c-0.3-0.1-0.4-0.1-0.4-0.1c0,0-0.1,0.2-0.1,0.5c0,2.3-0.1,4.3,0,6.3
			c0,0.9,0.4,2.1,2.6,2.1c4.4,0,8.8,0,13.2,0c4.6,0,9.1,0,13.7,0h0c0.9,0,1.8,0,2.7,0.2c3.9,0.9,6.1,4.4,5.7,8.7
			c-0.4,3.6-3.6,6.5-7.4,6.5c-3.4,0-6.8,0-10.1,0c-1.1,0-2.3,0-3.4,0l-0.9,0c-1.3,0-2.6,0-3.9,0c-3.4,0-7,0-10.5,0c0,0,0,0,0,0
			c-1.3,0-1.3,0.3-1.3,0.7c0,0.3,0,0.5,0.1,0.6c0.1,0.1,0.4,0.3,1.3,0.3c0.3,0,0.5,0,0.8,0c0.2,0,0.3,0,0.5,0l4.1,0
			c2.9,0,5.7,0,8.6,0c2.6,0,4.7,0.8,6.1,2.3c1.4,1.5,2,3.6,1.8,6.2c-0.2,2-1.3,3.2-3.2,3.3C36.1,72,36,72,36,72z M29.4,65
			c0.4,0,0.8,0,1.2,0c3.2,0,3.6,0.4,4,3.5c0.1,1.1,0.7,1.6,1.6,1.5c0.8,0,1.3-0.3,1.4-1.6c0.2-2.1-0.3-3.7-1.3-4.8
			c-1-1.1-2.6-1.7-4.7-1.7c-2.9,0-5.7,0-8.6,0l-4.1,0c-0.2,0-0.3,0-0.5,0c-0.2,0-0.5,0-0.7,0c-0.8,0-1.9-0.1-2.6-0.8
			c-0.5-0.5-0.7-1.1-0.7-2c0-1.2,0.6-2.6,3.2-2.6c0,0,0,0,0,0c3.5,0,7,0,10.5,0c1,0,2,0,3,0v0h1c1.4,0,2.9,0,4.3,0
			c3.3,0,6.7,0,10.1,0c2.8,0,5.3-2.2,5.5-4.8c0.4-3.5-1.2-6-4.2-6.7C47,45,46.2,45,45.4,45h0c-4.6,0-9.1,0-13.7,0
			c-4.4,0-8.8,0-13.2,0c-2.7,0-4.4-1.5-4.5-3.9c-0.1-2.2,0-4.5,0-6.4c0-1.3,0.7-1.9,1.1-2.1c0.4-0.2,1.2-0.5,2.3,0.1
			c1.6,0.9,2.8,1.7,3.7,2.6c2.2,2.3,4.9,3.7,8.3,4.3c7,1.2,12,0.1,16.1-3.6c3.2-2.9,4.8-6.7,4.3-10.3c-0.5-3.6-2.9-6.6-6.7-8.5
			c-1.6-0.8-3.5-1.2-5.3-1.6c-0.3-0.1-0.6-0.1-0.9-0.2c-4.4-1-6.3-3.4-6.5-7.8c0-0.5,0-1,0-1.4c0-0.3,0-0.6,0-0.8
			c0-1-0.4-1.5-1.4-1.6c-0.7-0.1-1.4,0.1-1.6,1.3c-0.1,0.5-0.1,0.9-0.1,1.4c0,4.4,1.4,8.2,4.4,11.5c1.5,1.7,1.9,3.4,1.3,5.6
			c-0.8,2.8-2.3,5-4.4,6.5c-2.3,1.6-4.7,1.9-7.2,1c-0.3-0.1-0.5-0.2-0.8-0.3c-0.9-0.4-1.9-0.8-2.9-1.1c-1.6-0.5-3.3-0.3-4.6,0.6
			c-1.3,0.9-2,2.4-2.1,4.1c0,0.8,0,1.7,0,2.5c0,1.2,0,2.4,0,3.6c-0.2,2.1,0.5,4.1,1.8,5.5c1.5,1.5,3.6,2.3,6,2.3
			c5.6-0.1,11.3-0.1,16.8-0.1c2.3,0,4.8,0,7.2,0l0.7,0c0.8,0,1.6,0,2.4,0c0,0,0,0,0,0c1.9,0,3,1.1,3.1,2.8c0,1.1-0.4,1.7-0.8,2.1
			c-0.5,0.5-1.3,0.8-2.3,0.8c-0.3,0-0.5,0-0.8,0c-0.7,0-1.4,0-2.2,0c-2,0-4.1,0-6.1,0c-6.4,0-13,0-19.5,0c-3.6,0-6,2.3-6,5.7
			c0,3.4,2.4,5.6,6,5.7c2.9,0,5.9,0,8.8,0C27.2,65,28.3,65,29.4,65z"/>
	</g>
	<g>
		<path class="st0" d="M47,28c-0.9,1.6-1.9,3.1-3.1,4.5c-2.4,3-5.6,4.4-9.7,4.8c-0.6-0.5-1.6-1-1.7-1.6c-0.2-1.3,0.9-1.4,1.8-1.3
			c4.3,0.1,7.2-2,9.5-5.4c0.4-0.7,0.8-1.4,1.3-2c0.5-0.5,1.2-0.8,1.8-1.2C46.9,26.5,47.3,27.5,47,28z"/>
	</g>
</g>
</svg>
